<svg class="icon" viewBox="0 0 1024 1024" version="1.1" xmlns="http://www.w3.org/2000/svg" width="200" height="200">
  <path
    d="M853.333333 256a21.333333 21.333333 0 0 1-42.325333 3.84L810.666667 256V192a64 64 0 0 0-57.856-63.701333L746.666667 128h-554.666667a64 64 0 0 0-63.701333 57.856L128 192v640a64 64 0 0 0 57.856 63.701333L192 896h554.666667a64 64 0 0 0 63.701333-57.856L810.666667 832V768a21.333333 21.333333 0 0 1 42.325333-3.84L853.333333 768v64a106.666667 106.666667 0 0 1-99.669333 106.453333L746.666667 938.666667h-554.666667a106.666667 106.666667 0 0 1-106.453333-99.669334L85.333333 832v-640a106.666667 106.666667 0 0 1 99.669334-106.453333L192 85.333333h554.666667a106.666667 106.666667 0 0 1 106.453333 99.669334L853.333333 192V256z m85.248 254.208l0.085334 2.304a22.613333 22.613333 0 0 1-0.213334 2.645333L938.666667 512l-0.128 2.261333-0.597334 3.2-0.853333 2.688-2.218667 3.968-1.962666 2.432-171.136 171.221334a21.333333 21.333333 0 0 1-32.64-27.221334l2.432-2.986666 134.272-134.229334H298.666667a21.333333 21.333333 0 0 1-3.84-42.325333L298.666667 490.666667h567.168l-134.272-134.229334a21.333333 21.333333 0 0 1-2.432-27.221333l2.432-2.986667a21.333333 21.333333 0 0 1 27.221333-2.432l2.986667 2.432 170.666666 170.666667 1.578667 1.792 1.792 2.645333 1.28 2.56 0.853333 2.645334 0.512 2.304 0.128 1.365333z"/>
</svg>
